{"title":"50 to 1 - 50 a 1 (2014).DVDrip.XviD - Italian English.Ac3.5.1.mu","uid":12305262,"size":1854620062,"categoryP":"video","categoryS":"movies","magnet":"?xt=urn:btih:658bbfbf0697a3a9b51ab2f3527ff60752a28916&amp;dn=50+to+1+-+50+a+1+%282014%29.DVDrip.XviD+-+Italian+English.Ac3.5.1.mu&amp;tr=udp%3A%2F%2Ftracker.openbittorrent.com%3A80&amp;tr=udp%3A%2F%2Fopen.demonii.com%3A1337&amp;tr=udp%3A%2F%2Ftracker.coppersurfer.tk%3A6969&amp;tr=udp%3A%2F%2Fexodus.desync.com%3A6969","seeders":6,"leechers":2,"uploader":"robbyrs4","files":4,"time":1440783702,"description":"50 to 1 - 50 a 1 (2014).DVDrip.XviD - Italian English.Ac3.5.1.multisub.MIRCrew\n\n[center]\n\n[color=red][b][img]http://s19.postimg.org/w9ws99nmb/banner_mircrew_original_2.png[/img]\n\n[u]NO FOUND ONLY ORIGINAL RELEASE[/u]\n\n50 a 1 - 50 to 1 (2014)\n\n[img]http://extraimago.com/images/2015/08/27/w20bbc.jpg[/img]\n\n[URL=http://www.imdb.com/title/tt1777595/][IMG]http://www.userlogos.org/files/logos/Sucka/imdb_new.png[/IMG][/URL]  \n\n[img]http://extraimago.com/images/2015/08/27/1scheda.png[/img]\n\nTitolo: 50 to 1\nPaese: USA 2014\nGenere: Drammatico\nDurata: 110'\nRegia: Jim Wilson\n\n[img]http://s19.postimg.org/q8fnlww2b/1_cast.png[/img]\n\nSkeet Ulrich, Christian Kane, William Devane, Madelyn Deutch, Todd Lowe, David Atkinson, Calvin Borel, Bruce Wayne Eckelman\n   \n[img]http://s19.postimg.org/okgi79i6r/1_trama.png[/img]\n\nUn gruppo disomogeneo di disadattati cowboy del New Mexico si trova ad affrontare un'imprevista avventura di vita quando il loro cavallo da corsa dalle zampe storte si qualifica per il Kentucky Derby. Affrontando una serie di incidenti, i cowboys passeranno dall'essere considerati dei reietti al divenire degli agguerriti concorrenti per la finale contro i migliori cavalli da corsa di tutto il mondo.\n\n[img]http://s19.postimg.org/fzn6g380j/1_story.png[/img]\n\nA misfit group of New Mexico cowboys find themselves on the journey of a lifetime when their crooked-footed racehorse qualifies for the Kentucky Derby. Based on the inspiring true story of ...............\n &lt;a href=&quot;\nhttp://extraimago.com/images/2015/08/27/vlcsnap-2015-08-27-18h48m24s572.png[/img]&quot; rel=&quot;nofollow&quot; target=&quot;_NEW&quot;&gt;\nhttp://extraimago.com/images/2015/08/27/vlcsnap-2015-08-27-18h48m24s572.png[/img]&lt;/a&gt; &lt;a href=&quot;\nhttp://extraimago.com/images/2015/08/27/vlcsnap-2015-08-27-18h50m17s630.png[/img]&quot; rel=&quot;nofollow&quot; target=&quot;_NEW&quot;&gt;\nhttp://extraimago.com/images/2015/08/27/vlcsnap-2015-08-27-18h50m17s630.png[/img]&lt;/a&gt;\n\n\n\n[IMG]http://img153.imageshack.us/img153/3158/restateinseedblood.gif[/img]\n\n\n[img]http://imgur.com/lvhU6.gif[/img]\n\n\n[img]http://s19.postimg.org/a2jaz9qvn/1_dati.png[/img]\n\n\n[spoiler]\n\nGeneral\nComplete name                            : 50 to 1 - 50 a 1 (2014).ita.eng.multisub.MIRCrew50 a 1 (2014).ita.eng.multisub.MIRCrew.avi\nFormat                                   : AVI\nFormat/Info                              : Audio Video Interleave\nFile size                                : 1.71 GiB\nDuration                                 : 1h 46mn\nOverall bit rate                         : 2 298 Kbps\nWriting application                      : VirtualDubMod 1.5.4.1 (build 2178/release)\nWriting library                          : VirtualDubMod build 2178/release\n\nVideo\nID                                       : 0\nFormat                                   : MPEG-4 Visual\nFormat profile                           : Advanced Simple@L5\nFormat settings, BVOP                    : 1\nFormat settings, QPel                    : No\nFormat settings, GMC                     : No warppoints\nFormat settings, Matrix                  : Custom\nCodec ID                                 : XVID\nCodec ID/Hint                            : XviD\nDuration                                 : 1h 46mn\nBit rate                                 : 1 457 Kbps\nWidth                                    : 784 pixels\nHeight                                   : 448 pixels\nDisplay aspect ratio                     : 16:9\nFrame rate                               : 25.000 fps\nColor space                              : YUV\nChroma subsampling                       : 4:2:0\nBit depth                                : 8 bits\nScan type                                : Progressive\nCompression mode                         : Lossy\nBits/(Pixel*Frame)                       : 0.166\nStream size                              : 1.08 GiB (63%)\nWriting library                          : XviD 64\n\nAudio #1\nID                                       : 1\nFormat                                   : AC-3\nFormat/Info                              : Audio Coding 3\nMode extension                           : CM (complete main)\nCodec ID                                 : 2000\nDuration                                 : 1h 46mn\nBit rate mode                            : Constant\nBit rate                                 : 384 Kbps\nChannel(s)                               : 6 channels\nChannel positions                        : Front: L C R, Side: L R, LFE\nSampling rate                            : 48.0 KHz\nBit depth                                : 16 bits\nCompression mode                         : Lossy\nStream size                              : 292 MiB (17%)\nAlignment                                : Split accross interleaves\nInterleave, duration                     : 96 ms (2.40 video frames)\nInterleave, preload duration             : 96 ms\nLanguage                                 : Italian\n\nAudio #2\nID                                       : 2\nFormat                                   : AC-3\nFormat/Info                              : Audio Coding 3\nMode extension                           : CM (complete main)\nCodec ID                                 : 2000\nDuration                                 : 1h 46mn\nBit rate mode                            : Constant\nBit rate                                 : 448 Kbps\nChannel(s)                               : 6 channels\nChannel positions                        : Front: L C R, Side: L R, LFE\nSampling rate                            : 48.0 KHz\nBit depth                                : 16 bits\nCompression mode                         : Lossy\nStream size                              : 341 MiB (19%)\nAlignment                                : Split accross interleaves\nInterleave, duration                     : 96 ms (2.40 video frames)\nInterleave, preload duration             : 96 ms\nLanguage                                 : English\n\n\n\n\n[/spoiler]\n\n[/color][/b][/center]","torrent":{"xt":"urn:btih:658bbfbf0697a3a9b51ab2f3527ff60752a28916","amp;dn":"50+to+1+-+50+a+1+%282014%29.DVDrip.XviD+-+Italian+English.Ac3.5.1.mu","amp;tr":["udp%3A%2F%2Ftracker.openbittorrent.com%3A80","udp%3A%2F%2Fopen.demonii.com%3A1337","udp%3A%2F%2Ftracker.coppersurfer.tk%3A6969","udp%3A%2F%2Fexodus.desync.com%3A6969"],"infoHash":"658bbfbf0697a3a9b51ab2f3527ff60752a28916","infoHashBuffer":{"type":"Buffer","data":[101,139,191,191,6,151,163,169,181,26,178,243,82,127,246,7,82,162,137,22]},"announce":[],"urlList":[]}}